<?xml version="1.0" encoding="UTF-8"?>
<svg version="1.1" xmlns="http://www.w3.org/2000/svg" width="512" height="512">
<path d="M0 0 C1.00438614 0.00121857 2.00877228 0.00243713 3.04359436 0.00369263 C18.08383938 0.11631496 33.0995925 1.07350773 48.11271667 1.91493225 C52.3453986 2.15075785 56.57846673 2.3794155 60.81152344 2.60839844 C65.83353474 2.88038069 70.85552367 3.1527186 75.87734985 3.42810059 C88.7276235 4.1325405 101.57953394 4.79786486 114.43359375 5.4296875 C116.06242019 5.51022216 117.69124513 5.59078713 119.32006836 5.67138672 C122.77451869 5.84201844 126.22902803 6.01140568 129.68359375 6.1796875 C128.68359375 9.1796875 128.68359375 9.1796875 127.07421875 10.2421875 C119.16983229 13.70396259 110.99122694 15.47023433 102.50390625 16.890625 C101.7962915 17.01236084 101.08867676 17.13409668 100.35961914 17.25952148 C98.3463055 17.60022894 96.32945136 17.91981525 94.3125 18.23828125 C89.80312113 19.40809859 86.16690207 21.22441744 83.30859375 24.9921875 C82.0323351 29.45909278 82.28485832 33.08841159 83.87109375 37.4296875 C86.46545819 41.36596458 89.22247609 42.79335493 93.75463867 43.99169922 C94.87974854 44.19553223 96.0048584 44.39936523 97.1640625 44.609375 C98.41123047 44.84785156 99.65839844 45.08632812 100.94335938 45.33203125 C103.54157009 45.81007101 106.14052322 46.28409474 108.74023438 46.75390625 C127.19468107 50.30247338 127.19468107 50.30247338 132.55859375 57.6171875 C136.40077414 64.87014557 138.11610416 73.09124053 139.64453125 81.09765625 C139.80816162 81.93965576 139.97179199 82.78165527 140.14038086 83.64916992 C140.45366428 85.2983231 140.74964004 86.95088765 141.02563477 88.60668945 C142.06249065 94.13988281 143.63164111 97.22052767 147.68359375 101.1796875 C152.47731854 102.77759576 156.28548497 102.73365513 160.99609375 100.8671875 C164.11718015 98.90743558 165.3931917 97.34246432 166.2902832 93.75048828 C166.54104614 92.32712158 166.54104614 92.32712158 166.796875 90.875 C166.99023438 89.8221582 167.18359375 88.76931641 167.3828125 87.68457031 C167.58519531 86.56920898 167.78757812 85.45384766 167.99609375 84.3046875 C172.79461292 59.2481343 172.79461292 59.2481343 180.68359375 53.1796875 C181.28171875 52.6021875 181.87984375 52.0246875 182.49609375 51.4296875 C185.88580566 49.49270926 188.84585287 48.34449569 192.68359375 49.1796875 C195.87714002 51.79209525 198.39432455 54.75187218 200.68359375 58.1796875 C200.68359375 58.8396875 200.68359375 59.4996875 200.68359375 60.1796875 C201.34359375 60.1796875 202.00359375 60.1796875 202.68359375 60.1796875 C204.22211141 61.89920724 205.69091134 63.68156247 207.12109375 65.4921875 C210.13594944 69.34435752 210.13594944 69.34435752 213.46875 72.91015625 C214.68359375 74.1796875 214.68359375 74.1796875 214.68359375 76.1796875 C215.34359375 76.1796875 216.00359375 76.1796875 216.68359375 76.1796875 C218.22211141 77.89920724 219.69091134 79.68156247 221.12109375 81.4921875 C224.13594944 85.34435752 224.13594944 85.34435752 227.46875 88.91015625 C228.68359375 90.1796875 228.68359375 90.1796875 228.68359375 92.1796875 C229.34359375 92.1796875 230.00359375 92.1796875 230.68359375 92.1796875 C232.24792162 93.87243034 233.73687947 95.63538602 235.18359375 97.4296875 C236.3746875 98.89148438 236.3746875 98.89148438 237.58984375 100.3828125 C239.27107409 102.62863512 240.56495274 104.6262678 241.68359375 107.1796875 C242.34359375 107.1796875 243.00359375 107.1796875 243.68359375 107.1796875 C245.24792162 108.87243034 246.73687947 110.63538602 248.18359375 112.4296875 C249.3746875 113.89148438 249.3746875 113.89148438 250.58984375 115.3828125 C252.27107409 117.62863512 253.56495274 119.6262678 254.68359375 122.1796875 C255.34359375 122.1796875 256.00359375 122.1796875 256.68359375 122.1796875 C258.19140625 123.640625 258.19140625 123.640625 259.80859375 125.5546875 C260.61683594 126.49441406 260.61683594 126.49441406 261.44140625 127.453125 C262.68359375 129.1796875 262.68359375 129.1796875 262.68359375 131.1796875 C263.34359375 131.1796875 264.00359375 131.1796875 264.68359375 131.1796875 C267.68359375 134.64122596 267.68359375 134.64122596 267.68359375 137.1796875 C268.34359375 137.1796875 269.00359375 137.1796875 269.68359375 137.1796875 C271.19140625 138.640625 271.19140625 138.640625 272.80859375 140.5546875 C273.34742188 141.18117188 273.88625 141.80765625 274.44140625 142.453125 C275.68359375 144.1796875 275.68359375 144.1796875 275.68359375 146.1796875 C276.34359375 146.1796875 277.00359375 146.1796875 277.68359375 146.1796875 C280.68359375 149.64122596 280.68359375 149.64122596 280.68359375 152.1796875 C281.34359375 152.1796875 282.00359375 152.1796875 282.68359375 152.1796875 C284.24792162 153.87243034 285.73687947 155.63538602 287.18359375 157.4296875 C287.97765625 158.40421875 288.77171875 159.37875 289.58984375 160.3828125 C291.27107409 162.62863512 292.56495274 164.6262678 293.68359375 167.1796875 C294.34359375 167.1796875 295.00359375 167.1796875 295.68359375 167.1796875 C300.68359375 172.65587798 300.68359375 172.65587798 300.68359375 175.1796875 C301.34359375 175.1796875 302.00359375 175.1796875 302.68359375 175.1796875 C302.68359375 177.4896875 302.68359375 179.7996875 302.68359375 182.1796875 C299.01562947 184.52703854 295.49074106 184.46319026 291.27778625 184.44038391 C290.52934501 184.44420946 289.78090377 184.44803501 289.00978249 184.45197648 C286.50034682 184.46230005 283.99114024 184.45831552 281.48168945 184.4543457 C279.68291512 184.45869267 277.88414264 184.46387577 276.08537292 184.46983337 C271.19671084 184.48323984 266.30812599 184.48379995 261.41944909 184.48127007 C257.33669607 184.48020095 253.25395871 184.48508252 249.17120904 184.4898755 C239.53510729 184.50097752 229.89904451 184.50140493 220.26293945 184.49536133 C210.33028068 184.48932729 200.39776377 184.50161649 190.4651292 184.5229314 C181.93333449 184.54056536 173.40158486 184.54654571 164.86977261 184.54329365 C159.77612688 184.54148268 154.68258222 184.54409801 149.58895302 184.55800819 C144.79464581 184.57061019 140.00055889 184.56861996 135.20625496 184.55559731 C133.45073115 184.55323671 131.69519173 184.55594762 129.93968582 184.56422043 C109.96641833 184.65152339 109.96641833 184.65152339 103.1875 179.15625 C102.54683594 178.38023437 101.90617187 177.60421875 101.24609375 176.8046875 C100.13041016 175.47244141 100.13041016 175.47244141 98.9921875 174.11328125 C96.15073822 170.50257329 93.33016235 166.87734407 90.55712891 163.21386719 C86.67302512 158.09588369 82.54031944 153.21481878 78.3671875 148.33203125 C74.39313686 143.6805693 70.50931817 138.95387276 66.68359375 134.1796875 C66.10609375 133.45910156 65.52859375 132.73851562 64.93359375 131.99609375 C63.68359375 130.1796875 63.68359375 130.1796875 63.68359375 128.1796875 C63.02359375 128.1796875 62.36359375 128.1796875 61.68359375 128.1796875 C59.95703125 126.28125 59.95703125 126.28125 58.05859375 123.8046875 C57.42695313 122.99257813 56.7953125 122.18046875 56.14453125 121.34375 C54.68359375 119.1796875 54.68359375 119.1796875 54.68359375 117.1796875 C54.02359375 117.1796875 53.36359375 117.1796875 52.68359375 117.1796875 C49.68359375 113.71814904 49.68359375 113.71814904 49.68359375 111.1796875 C49.02359375 111.1796875 48.36359375 111.1796875 47.68359375 111.1796875 C45.96023739 109.15238822 44.34547685 107.11435527 42.74609375 104.9921875 C38.93886626 100.03729053 35.06047844 95.17622664 30.99609375 90.4296875 C27.84906376 86.74862937 24.74757074 83.04364492 21.74609375 79.2421875 C20.3951443 77.55211082 19.0405913 75.86491189 17.68359375 74.1796875 C17.22307617 73.60476562 16.76255859 73.02984375 16.28808594 72.4375 C14.74695041 70.52669017 13.18611315 68.63346502 11.62109375 66.7421875 C11.13842041 66.13834229 10.65574707 65.53449707 10.15844727 64.91235352 C6.70761532 60.79102766 3.83596166 58.81048285 -1.31640625 57.1796875 C-4.72981184 56.88164714 -7.2955248 57.57096467 -10.31640625 59.1796875 C-12.71191984 61.66954494 -14.70483677 64.23470154 -16.6875 67.0625 C-17.49380859 68.11050781 -17.49380859 68.11050781 -18.31640625 69.1796875 C-18.97640625 69.1796875 -19.63640625 69.1796875 -20.31640625 69.1796875 C-20.74953125 70.076875 -20.74953125 70.076875 -21.19140625 70.9921875 C-22.31640625 73.1796875 -22.31640625 73.1796875 -24.31640625 76.1796875 C-24.97640625 76.1796875 -25.63640625 76.1796875 -26.31640625 76.1796875 C-26.58453125 76.7571875 -26.85265625 77.3346875 -27.12890625 77.9296875 C-28.34569814 80.23518793 -29.61974504 82.20024942 -31.31640625 84.1796875 C-31.97640625 84.1796875 -32.63640625 84.1796875 -33.31640625 84.1796875 C-33.55359375 84.72109375 -33.79078125 85.2625 -34.03515625 85.8203125 C-35.65988382 88.81218887 -37.66659395 91.29128149 -39.81640625 93.9296875 C-40.61046875 94.91453125 -41.40453125 95.899375 -42.22265625 96.9140625 C-43.2590625 98.03554688 -43.2590625 98.03554688 -44.31640625 99.1796875 C-44.97640625 99.1796875 -45.63640625 99.1796875 -46.31640625 99.1796875 C-46.60515625 99.7778125 -46.89390625 100.3759375 -47.19140625 100.9921875 C-48.31640625 103.1796875 -48.31640625 103.1796875 -50.31640625 106.1796875 C-50.97640625 106.1796875 -51.63640625 106.1796875 -52.31640625 106.1796875 C-52.58453125 106.7571875 -52.85265625 107.3346875 -53.12890625 107.9296875 C-54.34569814 110.23518793 -55.61974504 112.20024942 -57.31640625 114.1796875 C-57.97640625 114.1796875 -58.63640625 114.1796875 -59.31640625 114.1796875 C-59.56390625 114.7365625 -59.81140625 115.2934375 -60.06640625 115.8671875 C-61.54565443 118.60379663 -63.25108064 120.85619619 -65.31640625 123.1796875 C-65.97640625 123.1796875 -66.63640625 123.1796875 -67.31640625 123.1796875 C-67.58195312 123.76492188 -67.8475 124.35015625 -68.12109375 124.953125 C-69.35118318 127.24446805 -70.6894668 128.88977694 -72.44140625 130.8046875 C-76.04364383 134.8071737 -79.34198811 139.00087876 -82.6171875 143.2734375 C-83.17792969 143.9025 -83.73867187 144.5315625 -84.31640625 145.1796875 C-84.97640625 145.1796875 -85.63640625 145.1796875 -86.31640625 145.1796875 C-86.56390625 145.7365625 -86.81140625 146.2934375 -87.06640625 146.8671875 C-88.54565443 149.60379663 -90.25108064 151.85619619 -92.31640625 154.1796875 C-92.97640625 154.1796875 -93.63640625 154.1796875 -94.31640625 154.1796875 C-94.60515625 154.7778125 -94.89390625 155.3759375 -95.19140625 155.9921875 C-96.31640625 158.1796875 -96.31640625 158.1796875 -98.31640625 161.1796875 C-98.97640625 161.1796875 -99.63640625 161.1796875 -100.31640625 161.1796875 C-100.52265625 161.70304688 -100.72890625 162.22640625 -100.94140625 162.765625 C-102.91687452 166.23391873 -105.58285385 168.91640572 -108.31640625 171.8046875 C-109.13625 172.68253906 -109.13625 172.68253906 -109.97265625 173.578125 C-116.13311298 180.16135817 -116.13311298 180.16135817 -118.81640625 180.4296875 C-121.31640625 180.1796875 -121.31640625 180.1796875 -123.31640625 178.1796875 C-123.24123195 174.19544978 -122.95622585 171.91947891 -120.31640625 168.8671875 C-119.878125 168.48304688 -119.43984375 168.09890625 -118.98828125 167.703125 C-116.68625912 165.60548801 -114.64891301 163.30682081 -112.56640625 160.9921875 C-111.7878125 160.13238281 -111.00921875 159.27257812 -110.20703125 158.38671875 C-108.29056147 156.32987521 -108.29056147 156.32987521 -107.31640625 154.1796875 C-106.65640625 154.1796875 -105.99640625 154.1796875 -105.31640625 154.1796875 C-105.06890625 153.6228125 -104.82140625 153.0659375 -104.56640625 152.4921875 C-103.08715807 149.75557837 -101.38173186 147.50317881 -99.31640625 145.1796875 C-98.65640625 145.1796875 -97.99640625 145.1796875 -97.31640625 145.1796875 C-97.08050781 144.62539063 -96.84460938 144.07109375 -96.6015625 143.5 C-95.00376075 140.61521508 -92.99789616 138.46796718 -90.75390625 136.0546875 C-87.67921439 132.86461241 -87.67921439 132.86461241 -85.31640625 129.1796875 C-84.65640625 129.1796875 -83.99640625 129.1796875 -83.31640625 129.1796875 C-83.04836182 128.59396973 -82.78031738 128.00825195 -82.50415039 127.40478516 C-81.30355396 125.15561026 -80.0011655 123.48099917 -78.3125 121.578125 C-77.73693359 120.92328125 -77.16136719 120.2684375 -76.56835938 119.59375 C-75.96958984 118.92085938 -75.37082031 118.24796875 -74.75390625 117.5546875 C-73.56326314 116.20996116 -72.37437388 114.86367928 -71.1875 113.515625 C-70.6608374 112.92313965 -70.1341748 112.3306543 -69.59155273 111.72021484 C-68.22783037 110.19071274 -68.22783037 110.19071274 -67.31640625 108.1796875 C-66.65640625 108.1796875 -65.99640625 108.1796875 -65.31640625 108.1796875 C-65.08050781 107.62539063 -64.84460938 107.07109375 -64.6015625 106.5 C-63.00376075 103.61521508 -60.99789616 101.46796718 -58.75390625 99.0546875 C-55.67921439 95.86461241 -55.67921439 95.86461241 -53.31640625 92.1796875 C-52.65640625 92.1796875 -51.99640625 92.1796875 -51.31640625 92.1796875 C-51.04828125 91.6021875 -50.78015625 91.0246875 -50.50390625 90.4296875 C-49.28711436 88.12418707 -48.01306746 86.15912558 -46.31640625 84.1796875 C-45.65640625 84.1796875 -44.99640625 84.1796875 -44.31640625 84.1796875 C-44.02765625 83.5815625 -43.73890625 82.9834375 -43.44140625 82.3671875 C-42.31640625 80.1796875 -42.31640625 80.1796875 -40.31640625 77.1796875 C-39.65640625 77.1796875 -38.99640625 77.1796875 -38.31640625 77.1796875 C-38.07921875 76.63828125 -37.84203125 76.096875 -37.59765625 75.5390625 C-35.97292868 72.54718613 -33.96621855 70.06809351 -31.81640625 67.4296875 C-30.6253125 65.95242187 -30.6253125 65.95242187 -29.41015625 64.4453125 C-28.71921875 63.69765625 -28.02828125 62.95 -27.31640625 62.1796875 C-26.65640625 62.1796875 -25.99640625 62.1796875 -25.31640625 62.1796875 C-25.04828125 61.6021875 -24.78015625 61.0246875 -24.50390625 60.4296875 C-23.28711436 58.12418707 -22.01306746 56.15912558 -20.31640625 54.1796875 C-19.65640625 54.1796875 -18.99640625 54.1796875 -18.31640625 54.1796875 C-17.98640625 53.1896875 -17.65640625 52.1996875 -17.31640625 51.1796875 C-12.06761864 47.46179628 -7.68848576 46.4686707 -1.31640625 46.1796875 C-1.99788707 44.15323614 -1.99788707 44.15323614 -3.31640625 42.1796875 C-5.38956666 41.36806079 -5.38956666 41.36806079 -7.75390625 41.2421875 C-8.53636719 41.15066406 -9.31882813 41.05914062 -10.125 40.96484375 C-12.87669263 41.23461754 -13.52346475 42.16720215 -15.31640625 44.1796875 C-15.97640625 44.1796875 -16.63640625 44.1796875 -17.31640625 44.1796875 C-17.6721875 44.99179688 -17.6721875 44.99179688 -18.03515625 45.8203125 C-19.65988382 48.81218887 -21.66659395 51.29128149 -23.81640625 53.9296875 C-24.61046875 54.91453125 -25.40453125 55.899375 -26.22265625 56.9140625 C-26.91359375 57.66171875 -27.60453125 58.409375 -28.31640625 59.1796875 C-28.97640625 59.1796875 -29.63640625 59.1796875 -30.31640625 59.1796875 C-30.55617188 59.72753906 -30.7959375 60.27539062 -31.04296875 60.83984375 C-32.62122408 63.7397669 -34.57582302 66.08340758 -36.69140625 68.6171875 C-40.14791636 72.77272936 -40.14791636 72.77272936 -43.48046875 77.02734375 C-44.08632812 77.73761719 -44.6921875 78.44789063 -45.31640625 79.1796875 C-45.97640625 79.1796875 -46.63640625 79.1796875 -47.31640625 79.1796875 C-47.62578125 79.7984375 -47.93515625 80.4171875 -48.25390625 81.0546875 C-48.94140625 82.4296875 -49.62890625 83.8046875 -50.31640625 85.1796875 C-50.97640625 85.1796875 -51.63640625 85.1796875 -52.31640625 85.1796875 C-52.31640625 85.8396875 -52.31640625 86.4996875 -52.31640625 87.1796875 C-52.97640625 87.1796875 -53.63640625 87.1796875 -54.31640625 87.1796875 C-54.62578125 87.7984375 -54.93515625 88.4171875 -55.25390625 89.0546875 C-55.94140625 90.4296875 -56.62890625 91.8046875 -57.31640625 93.1796875 C-57.97640625 93.1796875 -58.63640625 93.1796875 -59.31640625 93.1796875 C-59.55359375 93.72109375 -59.79078125 94.2625 -60.03515625 94.8203125 C-61.65988382 97.81218887 -63.66659395 100.29128149 -65.81640625 102.9296875 C-66.61046875 103.91453125 -67.40453125 104.899375 -68.22265625 105.9140625 C-69.2590625 107.03554688 -69.2590625 107.03554688 -70.31640625 108.1796875 C-70.97640625 108.1796875 -71.63640625 108.1796875 -72.31640625 108.1796875 C-72.58453125 108.7571875 -72.85265625 109.3346875 -73.12890625 109.9296875 C-74.34569814 112.23518793 -75.61974504 114.20024942 -77.31640625 116.1796875 C-77.97640625 116.1796875 -78.63640625 116.1796875 -79.31640625 116.1796875 C-79.55359375 116.72109375 -79.79078125 117.2625 -80.03515625 117.8203125 C-81.65988382 120.81218887 -83.66659395 123.29128149 -85.81640625 125.9296875 C-86.61046875 126.91453125 -87.40453125 127.899375 -88.22265625 128.9140625 C-89.2590625 130.03554688 -89.2590625 130.03554688 -90.31640625 131.1796875 C-90.97640625 131.1796875 -91.63640625 131.1796875 -92.31640625 131.1796875 C-92.60515625 131.7778125 -92.89390625 132.3759375 -93.19140625 132.9921875 C-94.31640625 135.1796875 -94.31640625 135.1796875 -96.31640625 138.1796875 C-96.97640625 138.1796875 -97.63640625 138.1796875 -98.31640625 138.1796875 C-98.58517578 138.76613037 -98.85394531 139.35257324 -99.13085938 139.95678711 C-100.32249917 142.19111172 -101.60947274 143.85525372 -103.28515625 145.74609375 C-104.14173828 146.7215918 -104.14173828 146.7215918 -105.015625 147.71679688 C-105.60988281 148.38517578 -106.20414063 149.05355469 -106.81640625 149.7421875 C-107.99501666 151.07547455 -109.17215948 152.41006074 -110.34765625 153.74609375 C-110.86908203 154.33334229 -111.39050781 154.92059082 -111.92773438 155.52563477 C-113.50313285 157.34042284 -113.50313285 157.34042284 -115.31640625 160.1796875 C-115.97640625 160.1796875 -116.63640625 160.1796875 -117.31640625 160.1796875 C-117.78046875 161.1078125 -117.78046875 161.1078125 -118.25390625 162.0546875 C-118.94140625 163.4296875 -119.62890625 164.8046875 -120.31640625 166.1796875 C-120.97640625 166.1796875 -121.63640625 166.1796875 -122.31640625 166.1796875 C-122.56777344 166.74558594 -122.81914063 167.31148437 -123.078125 167.89453125 C-124.4936412 170.50676147 -126.1605527 172.51791035 -128.12890625 174.7421875 C-128.79535156 175.50660156 -129.46179688 176.27101563 -130.1484375 177.05859375 C-135.81811496 182.60568358 -141.25978779 183.32373414 -148.94140625 183.4296875 C-150.63136719 183.46835937 -150.63136719 183.46835937 -152.35546875 183.5078125 C-155.31640625 183.1796875 -155.31640625 183.1796875 -157.19140625 182.015625 C-160.002571 177.42796031 -158.82015635 170.6217804 -157.77734375 165.56640625 C-155.62790826 158.5394056 -151.51303007 154.24956439 -146.31640625 149.1796875 C-143.64461099 146.57002702 -141.39070404 144.29113419 -139.31640625 141.1796875 C-138.65640625 141.1796875 -137.99640625 141.1796875 -137.31640625 141.1796875 C-136.97609375 140.3753125 -136.97609375 140.3753125 -136.62890625 139.5546875 C-134.35764761 135.44479092 -131.27132571 132.13301807 -127.96875 128.8359375 C-124.79847925 125.66099772 -121.7822744 122.36247462 -118.76025391 119.04711914 C-118.27347168 118.5133667 -117.78668945 117.97961426 -117.28515625 117.4296875 C-116.79402344 116.89085937 -116.30289063 116.35203125 -115.796875 115.796875 C-114.36262497 114.23017444 -112.91950624 112.67225065 -111.47265625 111.1171875 C-106.08854496 105.31565951 -100.96836564 99.4049809 -96.09375 93.1640625 C-95.21396484 92.18179688 -95.21396484 92.18179688 -94.31640625 91.1796875 C-93.65640625 91.1796875 -92.99640625 91.1796875 -92.31640625 91.1796875 C-92.05303467 90.59413086 -91.78966309 90.00857422 -91.51831055 89.40527344 C-90.26317842 87.08112464 -88.90954671 85.47361012 -87.0859375 83.5703125 C-86.44720703 82.89742188 -85.80847656 82.22453125 -85.15039062 81.53125 C-84.48330078 80.83773437 -83.81621094 80.14421875 -83.12890625 79.4296875 C-78.61708912 74.70686996 -74.18609761 69.946126 -69.90795898 65.00976562 C-67.0423588 61.71469905 -64.08144141 58.50547176 -61.13671875 55.28125 C-59.27963958 53.31245329 -59.27963958 53.31245329 -58.31640625 51.1796875 C-57.65640625 51.1796875 -56.99640625 51.1796875 -56.31640625 51.1796875 C-56.08953125 50.6434375 -55.86265625 50.1071875 -55.62890625 49.5546875 C-52.75235039 44.34949118 -48.48495627 40.34823752 -44.31640625 36.1796875 C-38.54204518 29.94177375 -38.54204518 29.94177375 -33.1640625 23.3671875 C-32.55433594 22.6453125 -31.94460937 21.9234375 -31.31640625 21.1796875 C-30.65640625 21.1796875 -29.99640625 21.1796875 -29.31640625 21.1796875 C-29.07277344 20.62023437 -28.82914063 20.06078125 -28.578125 19.484375 C-22.38550129 8.17277131 -12.73585348 -0.01762634 0 0 Z " fill="#53B0DF" transform="translate(183.31640625,177.8203125)"/>
<path d="M0 0 C1.00438614 0.00121857 2.00877228 0.00243713 3.04359436 0.00369263 C18.08383938 0.11631496 33.0995925 1.07350773 48.11271667 1.91493225 C52.3453986 2.15075785 56.57846673 2.3794155 60.81152344 2.60839844 C65.83353474 2.88038069 70.85552367 3.1527186 75.87734985 3.42810059 C88.7276235 4.1325405 101.57953394 4.79786486 114.43359375 5.4296875 C116.06242019 5.51022216 117.69124513 5.59078713 119.32006836 5.67138672 C122.77451869 5.84201844 126.22902803 6.01140568 129.68359375 6.1796875 C128.68359375 9.1796875 128.68359375 9.1796875 126.72265625 10.3125 C125.52769531 10.80363281 125.52769531 10.80363281 124.30859375 11.3046875 C123.51710938 11.63726562 122.725625 11.96984375 121.91015625 12.3125 C109.72398184 17.05869425 93.00567294 13.93898969 80.08203125 13.33984375 C78.14630063 13.25234729 76.21056027 13.16506607 74.27481079 13.07798767 C70.25259454 12.89622276 66.23050735 12.71187902 62.20849609 12.52563477 C57.0621208 12.28753785 51.91547306 12.05603547 46.768713 11.8264246 C42.78630508 11.64803469 38.80406083 11.46618669 34.82185745 11.28329277 C32.92334451 11.19651319 31.02478236 11.11080295 29.12617111 11.02620125 C26.48025996 10.90778356 23.83460524 10.78470198 21.18896484 10.66040039 C20.41280823 10.62659271 19.63665161 10.59278503 18.8369751 10.55795288 C14.71777734 10.35907396 10.73549311 9.95111884 6.68359375 9.1796875 C11.69473508 15.57626202 16.88348158 21.78541767 22.19067383 27.9362793 C25.22144993 31.45513831 28.19867153 35.00713652 31.12109375 38.6171875 C34.71995404 43.05208067 38.43091439 47.37536536 42.18359375 51.6796875 C46.67862452 56.8354865 51.06982426 62.05479417 55.375 67.37109375 C58.0970356 70.68267343 60.88502514 73.9327875 63.68359375 77.1796875 C68.00298961 82.19278809 72.23456811 87.2650646 76.40625 92.40234375 C78.96563347 95.52365017 81.56949291 98.60422174 84.18359375 101.6796875 C87.53806502 105.62619231 90.85581204 109.59610822 94.12109375 113.6171875 C97.57633526 117.86361132 101.11057209 122.03265044 104.68359375 126.1796875 C109.00288331 131.19288238 113.23456494 136.2650607 117.40625 141.40234375 C119.96563456 144.52365151 122.56954458 147.60417633 125.18359375 150.6796875 C129.38365209 155.62256849 133.52139905 160.61136056 137.61328125 165.64453125 C138.29648437 166.48113281 138.9796875 167.31773437 139.68359375 168.1796875 C140.26694992 169.20792633 140.85030609 170.23616516 141.45133972 171.29556274 C143.38952113 173.58524657 144.45518161 174.13460118 147.43725014 174.72323227 C151.12250341 174.92112853 154.78244498 174.92219479 158.4699707 174.86083984 C159.88940865 174.85914659 161.30885185 174.86009898 162.72828674 174.86349487 C166.57543731 174.86521502 170.42146334 174.82996393 174.26835275 174.78805113 C178.29083811 174.75051922 182.31334984 174.74701686 186.33598328 174.73989868 C193.95049813 174.72125692 201.56449555 174.67202944 209.17878264 174.61180174 C217.84855159 174.54471537 226.51834538 174.51174233 235.18830931 174.48162913 C253.02036405 174.41892943 270.85193729 174.31340786 288.68359375 174.1796875 C288.01320068 173.4487085 287.34280762 172.71772949 286.65209961 171.96459961 C285.76401611 170.99272705 284.87593262 170.02085449 283.9609375 169.01953125 C282.6459729 167.58275024 282.6459729 167.58275024 281.30444336 166.11694336 C278.86656474 163.38474796 276.53801678 160.5971552 274.24609375 157.7421875 C270.5878836 153.20652307 266.7361641 148.9226758 262.76977539 144.66040039 C258.98868817 140.57307744 255.48669409 136.29925506 251.99609375 131.9609375 C249.48388365 128.93949562 246.85958548 126.05526977 244.18359375 123.1796875 C239.91441223 118.59208637 235.92600858 113.84526022 231.99609375 108.9609375 C229.04183011 105.40783664 225.91445951 102.0394507 222.76733398 98.65795898 C219.79643747 95.446697 216.98398298 92.15340935 214.24609375 88.7421875 C210.40678151 83.96880287 206.32431198 79.49689867 202.13842773 75.03125 C198.1043512 70.70206013 194.36191111 66.18312686 190.6640625 61.5625 C188.90669301 59.44811067 187.09737538 57.52436837 185.12109375 55.6171875 C183.91453125 54.410625 183.91453125 54.410625 182.68359375 53.1796875 C182.68359375 52.5196875 182.68359375 51.8596875 182.68359375 51.1796875 C186.19203273 49.57582968 188.826349 48.6801046 192.68359375 49.1796875 C194.921875 51.078125 194.921875 51.078125 196.99609375 53.5546875 C198.04216797 54.77285156 198.04216797 54.77285156 199.109375 56.015625 C200.68359375 58.1796875 200.68359375 58.1796875 200.68359375 60.1796875 C201.34359375 60.1796875 202.00359375 60.1796875 202.68359375 60.1796875 C204.22211141 61.89920724 205.69091134 63.68156247 207.12109375 65.4921875 C210.13594944 69.34435752 210.13594944 69.34435752 213.46875 72.91015625 C214.68359375 74.1796875 214.68359375 74.1796875 214.68359375 76.1796875 C215.34359375 76.1796875 216.00359375 76.1796875 216.68359375 76.1796875 C218.22211141 77.89920724 219.69091134 79.68156247 221.12109375 81.4921875 C224.13594944 85.34435752 224.13594944 85.34435752 227.46875 88.91015625 C228.68359375 90.1796875 228.68359375 90.1796875 228.68359375 92.1796875 C229.34359375 92.1796875 230.00359375 92.1796875 230.68359375 92.1796875 C232.24792162 93.87243034 233.73687947 95.63538602 235.18359375 97.4296875 C236.3746875 98.89148438 236.3746875 98.89148438 237.58984375 100.3828125 C239.27107409 102.62863512 240.56495274 104.6262678 241.68359375 107.1796875 C242.34359375 107.1796875 243.00359375 107.1796875 243.68359375 107.1796875 C245.24792162 108.87243034 246.73687947 110.63538602 248.18359375 112.4296875 C249.3746875 113.89148438 249.3746875 113.89148438 250.58984375 115.3828125 C252.27107409 117.62863512 253.56495274 119.6262678 254.68359375 122.1796875 C255.34359375 122.1796875 256.00359375 122.1796875 256.68359375 122.1796875 C258.19140625 123.640625 258.19140625 123.640625 259.80859375 125.5546875 C260.61683594 126.49441406 260.61683594 126.49441406 261.44140625 127.453125 C262.68359375 129.1796875 262.68359375 129.1796875 262.68359375 131.1796875 C263.34359375 131.1796875 264.00359375 131.1796875 264.68359375 131.1796875 C267.68359375 134.64122596 267.68359375 134.64122596 267.68359375 137.1796875 C268.34359375 137.1796875 269.00359375 137.1796875 269.68359375 137.1796875 C271.19140625 138.640625 271.19140625 138.640625 272.80859375 140.5546875 C273.34742188 141.18117188 273.88625 141.80765625 274.44140625 142.453125 C275.68359375 144.1796875 275.68359375 144.1796875 275.68359375 146.1796875 C276.34359375 146.1796875 277.00359375 146.1796875 277.68359375 146.1796875 C280.68359375 149.64122596 280.68359375 149.64122596 280.68359375 152.1796875 C281.34359375 152.1796875 282.00359375 152.1796875 282.68359375 152.1796875 C284.24792162 153.87243034 285.73687947 155.63538602 287.18359375 157.4296875 C287.97765625 158.40421875 288.77171875 159.37875 289.58984375 160.3828125 C291.27107409 162.62863512 292.56495274 164.6262678 293.68359375 167.1796875 C294.34359375 167.1796875 295.00359375 167.1796875 295.68359375 167.1796875 C300.68359375 172.65587798 300.68359375 172.65587798 300.68359375 175.1796875 C301.34359375 175.1796875 302.00359375 175.1796875 302.68359375 175.1796875 C302.68359375 177.4896875 302.68359375 179.7996875 302.68359375 182.1796875 C299.01562947 184.52703854 295.49074106 184.46319026 291.27778625 184.44038391 C290.52934501 184.44420946 289.78090377 184.44803501 289.00978249 184.45197648 C286.50034682 184.46230005 283.99114024 184.45831552 281.48168945 184.4543457 C279.68291512 184.45869267 277.88414264 184.46387577 276.08537292 184.46983337 C271.19671084 184.48323984 266.30812599 184.48379995 261.41944909 184.48127007 C257.33669607 184.48020095 253.25395871 184.48508252 249.17120904 184.4898755 C239.53510729 184.50097752 229.89904451 184.50140493 220.26293945 184.49536133 C210.33028068 184.48932729 200.39776377 184.50161649 190.4651292 184.5229314 C181.93333449 184.54056536 173.40158486 184.54654571 164.86977261 184.54329365 C159.77612688 184.54148268 154.68258222 184.54409801 149.58895302 184.55800819 C144.79464581 184.57061019 140.00055889 184.56861996 135.20625496 184.55559731 C133.45073115 184.55323671 131.69519173 184.55594762 129.93968582 184.56422043 C109.96641833 184.65152339 109.96641833 184.65152339 103.1875 179.15625 C102.54683594 178.38023437 101.90617187 177.60421875 101.24609375 176.8046875 C100.13041016 175.47244141 100.13041016 175.47244141 98.9921875 174.11328125 C96.15073822 170.50257329 93.33016235 166.87734407 90.55712891 163.21386719 C86.67302512 158.09588369 82.54031944 153.21481878 78.3671875 148.33203125 C74.39313686 143.6805693 70.50931817 138.95387276 66.68359375 134.1796875 C66.10609375 133.45910156 65.52859375 132.73851562 64.93359375 131.99609375 C63.68359375 130.1796875 63.68359375 130.1796875 63.68359375 128.1796875 C63.02359375 128.1796875 62.36359375 128.1796875 61.68359375 128.1796875 C59.95703125 126.28125 59.95703125 126.28125 58.05859375 123.8046875 C57.42695313 122.99257813 56.7953125 122.18046875 56.14453125 121.34375 C54.68359375 119.1796875 54.68359375 119.1796875 54.68359375 117.1796875 C54.02359375 117.1796875 53.36359375 117.1796875 52.68359375 117.1796875 C49.68359375 113.71814904 49.68359375 113.71814904 49.68359375 111.1796875 C49.02359375 111.1796875 48.36359375 111.1796875 47.68359375 111.1796875 C45.96023739 109.15238822 44.34547685 107.11435527 42.74609375 104.9921875 C38.93886626 100.03729053 35.06047844 95.17622664 30.99609375 90.4296875 C27.84906376 86.74862937 24.74757074 83.04364492 21.74609375 79.2421875 C20.3951443 77.55211082 19.0405913 75.86491189 17.68359375 74.1796875 C17.22307617 73.60476562 16.76255859 73.02984375 16.28808594 72.4375 C14.74695041 70.52669017 13.18611315 68.63346502 11.62109375 66.7421875 C11.13842041 66.13834229 10.65574707 65.53449707 10.15844727 64.91235352 C6.70761532 60.79102766 3.83596166 58.81048285 -1.31640625 57.1796875 C-4.72981184 56.88164714 -7.2955248 57.57096467 -10.31640625 59.1796875 C-12.71191984 61.66954494 -14.70483677 64.23470154 -16.6875 67.0625 C-17.49380859 68.11050781 -17.49380859 68.11050781 -18.31640625 69.1796875 C-18.97640625 69.1796875 -19.63640625 69.1796875 -20.31640625 69.1796875 C-20.74953125 70.076875 -20.74953125 70.076875 -21.19140625 70.9921875 C-22.31640625 73.1796875 -22.31640625 73.1796875 -24.31640625 76.1796875 C-24.97640625 76.1796875 -25.63640625 76.1796875 -26.31640625 76.1796875 C-26.58453125 76.7571875 -26.85265625 77.3346875 -27.12890625 77.9296875 C-28.34569814 80.23518793 -29.61974504 82.20024942 -31.31640625 84.1796875 C-31.97640625 84.1796875 -32.63640625 84.1796875 -33.31640625 84.1796875 C-33.55359375 84.72109375 -33.79078125 85.2625 -34.03515625 85.8203125 C-35.65988382 88.81218887 -37.66659395 91.29128149 -39.81640625 93.9296875 C-40.61046875 94.91453125 -41.40453125 95.899375 -42.22265625 96.9140625 C-43.2590625 98.03554688 -43.2590625 98.03554688 -44.31640625 99.1796875 C-44.97640625 99.1796875 -45.63640625 99.1796875 -46.31640625 99.1796875 C-46.60515625 99.7778125 -46.89390625 100.3759375 -47.19140625 100.9921875 C-48.31640625 103.1796875 -48.31640625 103.1796875 -50.31640625 106.1796875 C-50.97640625 106.1796875 -51.63640625 106.1796875 -52.31640625 106.1796875 C-52.58453125 106.7571875 -52.85265625 107.3346875 -53.12890625 107.9296875 C-54.34569814 110.23518793 -55.61974504 112.20024942 -57.31640625 114.1796875 C-57.97640625 114.1796875 -58.63640625 114.1796875 -59.31640625 114.1796875 C-59.56390625 114.7365625 -59.81140625 115.2934375 -60.06640625 115.8671875 C-61.54565443 118.60379663 -63.25108064 120.85619619 -65.31640625 123.1796875 C-65.97640625 123.1796875 -66.63640625 123.1796875 -67.31640625 123.1796875 C-67.58195312 123.76492188 -67.8475 124.35015625 -68.12109375 124.953125 C-69.35118318 127.24446805 -70.6894668 128.88977694 -72.44140625 130.8046875 C-76.04364383 134.8071737 -79.34198811 139.00087876 -82.6171875 143.2734375 C-83.17792969 143.9025 -83.73867187 144.5315625 -84.31640625 145.1796875 C-84.97640625 145.1796875 -85.63640625 145.1796875 -86.31640625 145.1796875 C-86.56390625 145.7365625 -86.81140625 146.2934375 -87.06640625 146.8671875 C-88.54565443 149.60379663 -90.25108064 151.85619619 -92.31640625 154.1796875 C-92.97640625 154.1796875 -93.63640625 154.1796875 -94.31640625 154.1796875 C-94.60515625 154.7778125 -94.89390625 155.3759375 -95.19140625 155.9921875 C-96.31640625 158.1796875 -96.31640625 158.1796875 -98.31640625 161.1796875 C-98.97640625 161.1796875 -99.63640625 161.1796875 -100.31640625 161.1796875 C-100.52265625 161.70304688 -100.72890625 162.22640625 -100.94140625 162.765625 C-102.91687452 166.23391873 -105.58285385 168.91640572 -108.31640625 171.8046875 C-109.13625 172.68253906 -109.13625 172.68253906 -109.97265625 173.578125 C-116.13311298 180.16135817 -116.13311298 180.16135817 -118.81640625 180.4296875 C-121.31640625 180.1796875 -121.31640625 180.1796875 -123.31640625 178.1796875 C-123.24123195 174.19544978 -122.95622585 171.91947891 -120.31640625 168.8671875 C-119.878125 168.48304688 -119.43984375 168.09890625 -118.98828125 167.703125 C-116.68625912 165.60548801 -114.64891301 163.30682081 -112.56640625 160.9921875 C-111.7878125 160.13238281 -111.00921875 159.27257812 -110.20703125 158.38671875 C-108.29056147 156.32987521 -108.29056147 156.32987521 -107.31640625 154.1796875 C-106.65640625 154.1796875 -105.99640625 154.1796875 -105.31640625 154.1796875 C-105.06890625 153.6228125 -104.82140625 153.0659375 -104.56640625 152.4921875 C-103.08715807 149.75557837 -101.38173186 147.50317881 -99.31640625 145.1796875 C-98.65640625 145.1796875 -97.99640625 145.1796875 -97.31640625 145.1796875 C-97.08050781 144.62539063 -96.84460938 144.07109375 -96.6015625 143.5 C-95.00376075 140.61521508 -92.99789616 138.46796718 -90.75390625 136.0546875 C-87.67921439 132.86461241 -87.67921439 132.86461241 -85.31640625 129.1796875 C-84.65640625 129.1796875 -83.99640625 129.1796875 -83.31640625 129.1796875 C-83.04836182 128.59396973 -82.78031738 128.00825195 -82.50415039 127.40478516 C-81.30355396 125.15561026 -80.0011655 123.48099917 -78.3125 121.578125 C-77.73693359 120.92328125 -77.16136719 120.2684375 -76.56835938 119.59375 C-75.96958984 118.92085938 -75.37082031 118.24796875 -74.75390625 117.5546875 C-73.56326314 116.20996116 -72.37437388 114.86367928 -71.1875 113.515625 C-70.6608374 112.92313965 -70.1341748 112.3306543 -69.59155273 111.72021484 C-68.22783037 110.19071274 -68.22783037 110.19071274 -67.31640625 108.1796875 C-66.65640625 108.1796875 -65.99640625 108.1796875 -65.31640625 108.1796875 C-65.08050781 107.62539063 -64.84460938 107.07109375 -64.6015625 106.5 C-63.00376075 103.61521508 -60.99789616 101.46796718 -58.75390625 99.0546875 C-55.67921439 95.86461241 -55.67921439 95.86461241 -53.31640625 92.1796875 C-52.65640625 92.1796875 -51.99640625 92.1796875 -51.31640625 92.1796875 C-51.04828125 91.6021875 -50.78015625 91.0246875 -50.50390625 90.4296875 C-49.28711436 88.12418707 -48.01306746 86.15912558 -46.31640625 84.1796875 C-45.65640625 84.1796875 -44.99640625 84.1796875 -44.31640625 84.1796875 C-44.02765625 83.5815625 -43.73890625 82.9834375 -43.44140625 82.3671875 C-42.31640625 80.1796875 -42.31640625 80.1796875 -40.31640625 77.1796875 C-39.65640625 77.1796875 -38.99640625 77.1796875 -38.31640625 77.1796875 C-38.07921875 76.63828125 -37.84203125 76.096875 -37.59765625 75.5390625 C-35.97292868 72.54718613 -33.96621855 70.06809351 -31.81640625 67.4296875 C-30.6253125 65.95242187 -30.6253125 65.95242187 -29.41015625 64.4453125 C-28.71921875 63.69765625 -28.02828125 62.95 -27.31640625 62.1796875 C-26.65640625 62.1796875 -25.99640625 62.1796875 -25.31640625 62.1796875 C-25.04828125 61.6021875 -24.78015625 61.0246875 -24.50390625 60.4296875 C-23.28711436 58.12418707 -22.01306746 56.15912558 -20.31640625 54.1796875 C-19.65640625 54.1796875 -18.99640625 54.1796875 -18.31640625 54.1796875 C-17.98640625 53.1896875 -17.65640625 52.1996875 -17.31640625 51.1796875 C-12.06761864 47.46179628 -7.68848576 46.4686707 -1.31640625 46.1796875 C-1.99788707 44.15323614 -1.99788707 44.15323614 -3.31640625 42.1796875 C-5.38956666 41.36806079 -5.38956666 41.36806079 -7.75390625 41.2421875 C-8.53636719 41.15066406 -9.31882813 41.05914062 -10.125 40.96484375 C-12.87669263 41.23461754 -13.52346475 42.16720215 -15.31640625 44.1796875 C-15.97640625 44.1796875 -16.63640625 44.1796875 -17.31640625 44.1796875 C-17.6721875 44.99179688 -17.6721875 44.99179688 -18.03515625 45.8203125 C-19.65988382 48.81218887 -21.66659395 51.29128149 -23.81640625 53.9296875 C-24.61046875 54.91453125 -25.40453125 55.899375 -26.22265625 56.9140625 C-26.91359375 57.66171875 -27.60453125 58.409375 -28.31640625 59.1796875 C-28.97640625 59.1796875 -29.63640625 59.1796875 -30.31640625 59.1796875 C-30.55617188 59.72753906 -30.7959375 60.27539062 -31.04296875 60.83984375 C-32.62122408 63.7397669 -34.57582302 66.08340758 -36.69140625 68.6171875 C-40.14791636 72.77272936 -40.14791636 72.77272936 -43.48046875 77.02734375 C-44.08632812 77.73761719 -44.6921875 78.44789063 -45.31640625 79.1796875 C-45.97640625 79.1796875 -46.63640625 79.1796875 -47.31640625 79.1796875 C-47.62578125 79.7984375 -47.93515625 80.4171875 -48.25390625 81.0546875 C-48.94140625 82.4296875 -49.62890625 83.8046875 -50.31640625 85.1796875 C-50.97640625 85.1796875 -51.63640625 85.1796875 -52.31640625 85.1796875 C-52.31640625 85.8396875 -52.31640625 86.4996875 -52.31640625 87.1796875 C-52.97640625 87.1796875 -53.63640625 87.1796875 -54.31640625 87.1796875 C-54.62578125 87.7984375 -54.93515625 88.4171875 -55.25390625 89.0546875 C-55.94140625 90.4296875 -56.62890625 91.8046875 -57.31640625 93.1796875 C-57.97640625 93.1796875 -58.63640625 93.1796875 -59.31640625 93.1796875 C-59.55359375 93.72109375 -59.79078125 94.2625 -60.03515625 94.8203125 C-61.65988382 97.81218887 -63.66659395 100.29128149 -65.81640625 102.9296875 C-66.61046875 103.91453125 -67.40453125 104.899375 -68.22265625 105.9140625 C-69.2590625 107.03554688 -69.2590625 107.03554688 -70.31640625 108.1796875 C-70.97640625 108.1796875 -71.63640625 108.1796875 -72.31640625 108.1796875 C-72.58453125 108.7571875 -72.85265625 109.3346875 -73.12890625 109.9296875 C-74.34569814 112.23518793 -75.61974504 114.20024942 -77.31640625 116.1796875 C-77.97640625 116.1796875 -78.63640625 116.1796875 -79.31640625 116.1796875 C-79.55359375 116.72109375 -79.79078125 117.2625 -80.03515625 117.8203125 C-81.65988382 120.81218887 -83.66659395 123.29128149 -85.81640625 125.9296875 C-86.61046875 126.91453125 -87.40453125 127.899375 -88.22265625 128.9140625 C-89.2590625 130.03554688 -89.2590625 130.03554688 -90.31640625 131.1796875 C-90.97640625 131.1796875 -91.63640625 131.1796875 -92.31640625 131.1796875 C-92.60515625 131.7778125 -92.89390625 132.3759375 -93.19140625 132.9921875 C-94.31640625 135.1796875 -94.31640625 135.1796875 -96.31640625 138.1796875 C-96.97640625 138.1796875 -97.63640625 138.1796875 -98.31640625 138.1796875 C-98.58517578 138.76613037 -98.85394531 139.35257324 -99.13085938 139.95678711 C-100.32249917 142.19111172 -101.60947274 143.85525372 -103.28515625 145.74609375 C-104.14173828 146.7215918 -104.14173828 146.7215918 -105.015625 147.71679688 C-105.60988281 148.38517578 -106.20414063 149.05355469 -106.81640625 149.7421875 C-107.99501666 151.07547455 -109.17215948 152.41006074 -110.34765625 153.74609375 C-110.86908203 154.33334229 -111.39050781 154.92059082 -111.92773438 155.52563477 C-113.50313285 157.34042284 -113.50313285 157.34042284 -115.31640625 160.1796875 C-115.97640625 160.1796875 -116.63640625 160.1796875 -117.31640625 160.1796875 C-117.78046875 161.1078125 -117.78046875 161.1078125 -118.25390625 162.0546875 C-118.94140625 163.4296875 -119.62890625 164.8046875 -120.31640625 166.1796875 C-120.97640625 166.1796875 -121.63640625 166.1796875 -122.31640625 166.1796875 C-122.56777344 166.74558594 -122.81914063 167.31148437 -123.078125 167.89453125 C-124.4936412 170.50676147 -126.1605527 172.51791035 -128.12890625 174.7421875 C-128.79535156 175.50660156 -129.46179688 176.27101563 -130.1484375 177.05859375 C-135.81811496 182.60568358 -141.25978779 183.32373414 -148.94140625 183.4296875 C-150.63136719 183.46835937 -150.63136719 183.46835937 -152.35546875 183.5078125 C-155.31640625 183.1796875 -155.31640625 183.1796875 -157.19140625 182.015625 C-160.002571 177.42796031 -158.82015635 170.6217804 -157.77734375 165.56640625 C-155.62790826 158.5394056 -151.51303007 154.24956439 -146.31640625 149.1796875 C-143.64461099 146.57002702 -141.39070404 144.29113419 -139.31640625 141.1796875 C-138.65640625 141.1796875 -137.99640625 141.1796875 -137.31640625 141.1796875 C-136.97609375 140.3753125 -136.97609375 140.3753125 -136.62890625 139.5546875 C-134.35764761 135.44479092 -131.27132571 132.13301807 -127.96875 128.8359375 C-124.79847925 125.66099772 -121.7822744 122.36247462 -118.76025391 119.04711914 C-118.27347168 118.5133667 -117.78668945 117.97961426 -117.28515625 117.4296875 C-116.79402344 116.89085937 -116.30289063 116.35203125 -115.796875 115.796875 C-114.36262497 114.23017444 -112.91950624 112.67225065 -111.47265625 111.1171875 C-106.08854496 105.31565951 -100.96836564 99.4049809 -96.09375 93.1640625 C-95.21396484 92.18179688 -95.21396484 92.18179688 -94.31640625 91.1796875 C-93.65640625 91.1796875 -92.99640625 91.1796875 -92.31640625 91.1796875 C-92.05303467 90.59413086 -91.78966309 90.00857422 -91.51831055 89.40527344 C-90.26317842 87.08112464 -88.90954671 85.47361012 -87.0859375 83.5703125 C-86.44720703 82.89742188 -85.80847656 82.22453125 -85.15039062 81.53125 C-84.48330078 80.83773437 -83.81621094 80.14421875 -83.12890625 79.4296875 C-78.61708912 74.70686996 -74.18609761 69.946126 -69.90795898 65.00976562 C-67.0423588 61.71469905 -64.08144141 58.50547176 -61.13671875 55.28125 C-59.27963958 53.31245329 -59.27963958 53.31245329 -58.31640625 51.1796875 C-57.65640625 51.1796875 -56.99640625 51.1796875 -56.31640625 51.1796875 C-56.08953125 50.6434375 -55.86265625 50.1071875 -55.62890625 49.5546875 C-52.75235039 44.34949118 -48.48495627 40.34823752 -44.31640625 36.1796875 C-38.54204518 29.94177375 -38.54204518 29.94177375 -33.1640625 23.3671875 C-32.55433594 22.6453125 -31.94460937 21.9234375 -31.31640625 21.1796875 C-30.65640625 21.1796875 -29.99640625 21.1796875 -29.31640625 21.1796875 C-29.07277344 20.62023437 -28.82914063 20.06078125 -28.578125 19.484375 C-22.38550129 8.17277131 -12.73585348 -0.01762634 0 0 Z " fill="#131516" transform="translate(183.31640625,177.8203125)"/>
<path d="M0 0 C3.68884837 0.22557706 4.90587443 0.90673012 7.578125 3.5546875 C8.48132783 4.65121803 9.3713214 5.75872114 10.25 6.875 C10.73033691 7.46361816 11.21067383 8.05223633 11.70556641 8.65869141 C13.14838209 10.4303104 14.57505917 12.2139928 16 14 C17.45600646 15.79355813 18.91417975 17.58536044 20.375 19.375 C21.45394531 20.70144531 21.45394531 20.70144531 22.5546875 22.0546875 C26.0348882 26.24649474 29.62033234 30.34398207 33.20043945 34.45043945 C37.1224954 38.95939957 40.93031865 43.54698064 44.69140625 48.19140625 C47.41344091 51.5029848 50.20139731 54.75313059 53 58 C57.29858761 62.98797738 61.5029471 68.03902192 65.65234375 73.15234375 C68.40947736 76.49668718 71.2314547 79.78074101 74.0625 83.0625 C78.1095778 87.75549545 82.03743885 92.51517726 85.87890625 97.37890625 C89.00599638 101.24313733 92.26101997 104.99411767 95.5078125 108.7578125 C98.55696648 112.29851775 101.55533476 115.87127459 104.5 119.5 C107.93207857 123.72792288 111.44546839 127.87531796 115 132 C119.28899266 136.97695138 123.48776722 142.01342874 127.62109375 147.12109375 C129.46215456 149.34910988 131.32616429 151.54249386 133.22265625 153.72265625 C133.77566406 154.35945312 134.32867187 154.99625 134.8984375 155.65234375 C135.99179934 156.90739994 137.08934145 158.15882893 138.19140625 159.40625 C142 163.78018188 142 163.78018188 142 166 C122.9436919 168.0698956 122.9436919 168.0698956 117.54296875 163.8203125 C115.19369552 161.22682492 113.15606423 158.68097546 111.21386719 155.78369141 C109.5626634 153.357365 107.73270061 151.09555287 105.89624023 148.80810547 C104.49801936 147.06002377 103.12832983 145.29239255 101.76171875 143.51953125 C99.03799527 140.01538788 96.19538822 136.62368821 93.3125 133.25 C89.44119143 128.71765363 85.66133069 124.12701364 81.95703125 119.45703125 C78.35295349 114.93215119 74.6692291 110.47206897 71 106 C68.75073546 103.25176517 66.50232034 100.50283687 64.25390625 97.75390625 C62.74201773 95.90662478 61.22898251 94.06028125 59.71484375 92.21484375 C56.15550795 87.87404143 52.61352724 83.52296001 49.125 79.125 C46.53753458 75.8740819 43.89045112 72.68759551 41.18359375 69.53540039 C36.47788964 64.05127763 31.98806411 58.44841996 27.625 52.6875 C23.14439286 46.78383861 18.6282598 40.91397062 14 35.125 C13.47229004 34.45299561 12.94458008 33.78099121 12.40087891 33.08862305 C8.52256465 28.27641072 5.517723 25.28425905 -0.875 24.5625 C-5.31231582 24.79473335 -8.63384226 26.10553315 -12 29 C-14.34261715 31.61009829 -16.51839493 34.30825386 -18.6796875 37.0703125 C-20.85849249 39.8213289 -23.1290737 42.41428595 -25.5 45 C-28.61458668 48.41739372 -31.5918662 51.9052235 -34.5 55.5 C-38.11149134 59.96420457 -41.88660694 64.23002114 -45.75390625 68.47265625 C-48.06187598 71.06962393 -50.25555863 73.73404013 -52.4375 76.4375 C-56.29708603 81.20996203 -60.37199991 85.73109109 -64.52734375 90.24609375 C-67.74709519 93.83207284 -70.75905176 97.56701492 -73.78515625 101.31640625 C-76.66598507 104.80693429 -79.70934403 108.13274068 -82.7578125 111.4765625 C-85.04515904 114.05082358 -87.21548271 116.69289489 -89.375 119.375 C-93.05636689 123.92860712 -96.92774473 128.23582516 -100.91357422 132.51904297 C-103.90412641 135.75176204 -106.73771685 139.06687666 -109.5 142.5 C-127.07901347 164.32331583 -127.07901347 164.32331583 -133 165 C-135.33300933 165.03888349 -137.66709801 165.0448635 -140 165 C-140.56178834 161.14773707 -140.91646212 157.56968513 -138.8984375 154.11328125 C-137.01807372 151.97818838 -135.02530079 149.99886946 -133 148 C-130.81497983 145.68363591 -128.65996731 143.33970811 -126.5 141 C-125.3556316 139.77198364 -124.21110422 138.54411541 -123.06640625 137.31640625 C-120.27002709 134.30485635 -117.55488937 131.23322582 -114.87109375 128.12109375 C-112.29607008 125.20201682 -109.64693744 122.3538115 -107 119.5 C-103.19282778 115.39418029 -99.43686556 111.25871774 -95.7734375 107.0234375 C-93.54861908 104.48498829 -91.27496681 101.99358224 -89 99.5 C-86.13528185 96.35916444 -83.28814098 93.20899244 -80.5 90 C-76.86934292 85.82131921 -73.13281424 81.74183696 -69.40234375 77.65234375 C-67.43058156 75.47539004 -65.48634663 73.28161326 -63.5625 71.0625 C-60.13231424 67.11332633 -56.58996482 63.26977695 -53.04711914 59.42211914 C-50.49459547 56.6452363 -47.97024254 53.85027985 -45.5 51 C-42.13812593 47.12338923 -38.66917328 43.34802097 -35.19628906 39.57128906 C-28.98309784 32.81225811 -22.84524938 25.99048362 -16.81640625 19.06640625 C-14.71083512 16.67103608 -12.57551312 14.30394858 -10.4375 11.9375 C-6.89303555 8.01067037 -3.42082097 4.03481448 0 0 Z " fill="#55AEDB" transform="translate(175,187)"/>
<path d="M0 0 C2.5625 0.4375 2.5625 0.4375 4.07421875 2.2734375 C6.22676338 6.84971348 6.98468807 11.55439588 7.9375 16.5 C11.20720783 33.7919454 11.20720783 33.7919454 21.5625 47.4375 C32.77698342 53.79475493 46.8111966 56.10489009 59.4609375 57.84765625 C62.06287078 58.57793864 63.10957548 59.13950713 64.5625 61.4375 C64.25 64.625 64.25 64.625 63.5625 67.4375 C61.77109351 67.85528385 59.9793481 68.27161427 58.1875 68.6875 C57.00542969 68.96464844 55.82335937 69.24179688 54.60546875 69.52734375 C51.78357587 70.17661024 48.955279 70.76200487 46.11328125 71.31640625 C30.02332949 74.41060816 30.02332949 74.41060816 17.125 83.9375 C10.6534422 94.06113573 8.54872275 106.17925401 6.34936523 117.79321289 C6.15930908 118.75348389 5.96925293 119.71375488 5.7734375 120.703125 C5.53052979 121.99911621 5.53052979 121.99911621 5.28271484 123.32128906 C4.5625 125.4375 4.5625 125.4375 1.5625 127.4375 C-1 127.3125 -1 127.3125 -3.4375 126.4375 C-5.27944644 123.49703083 -5.92736563 120.60532393 -6.55078125 117.21875 C-6.74414062 116.20925293 -6.9375 115.19975586 -7.13671875 114.15966797 C-7.33910156 113.09635254 -7.54148437 112.03303711 -7.75 110.9375 C-11.05419532 92.91076313 -11.05419532 92.91076313 -22.2734375 79.1484375 C-33.08530831 72.96480613 -47.21070932 70.59685494 -59.44140625 68.9921875 C-61.88359788 68.31353542 -62.91915753 67.45052825 -64.4375 65.4375 C-64.19296876 62.09557308 -63.83206443 60.83206443 -61.4375 58.4375 C-59.19775391 57.81494141 -59.19775391 57.81494141 -56.4140625 57.2890625 C-55.39812012 57.09046631 -54.38217773 56.89187012 -53.33544922 56.68725586 C-51.71533936 56.37800171 -51.71533936 56.37800171 -50.0625 56.0625 C-30.40088582 52.62040983 -30.40088582 52.62040983 -15.4375 40.4375 C-11.20495708 32.31276453 -9.10468343 23.7251431 -7.25 14.8125 C-6.76310245 12.50641084 -6.26993593 10.20163345 -5.76953125 7.8984375 C-5.45592651 6.39482666 -5.45592651 6.39482666 -5.13598633 4.86083984 C-4.20046855 1.61513922 -3.35589533 0.60234019 0 0 Z M-0.4375 29.4375 C-0.75203125 30.30632812 -1.0665625 31.17515625 -1.390625 32.0703125 C-5.59973696 43.40448748 -10.59742451 52.2660707 -21.4375 58.4375 C-25.05240112 59.94004999 -28.71383595 61.23219102 -32.4375 62.4375 C-30.94317562 65.42614876 -28.74366995 65.71503202 -25.6875 66.9375 C-24.64078125 67.3603125 -23.5940625 67.783125 -22.515625 68.21875 C-21.49984375 68.6209375 -20.4840625 69.023125 -19.4375 69.4375 C-17.77083333 70.10416667 -16.10416667 70.77083333 -14.4375 71.4375 C-14.4375 72.0975 -14.4375 72.7575 -14.4375 73.4375 C-13.3546875 74.489375 -13.3546875 74.489375 -12.25 75.5625 C-5.66717555 81.97796451 -3.02192414 89.77462579 -0.4375 98.4375 C1.21570356 95.28818462 2.478629 92.06944989 3.75 88.75 C9.5938499 74.80290474 18.98147019 69.01425137 32.5625 63.4375 C29.90482363 61.66571575 27.90230212 60.79003376 24.9375 59.75 C15.14545351 55.85316517 9.06293594 49.93082079 4.5625 40.4375 C3.08924239 36.81172583 1.7659474 33.16110784 0.5625 29.4375 C0.2325 29.4375 -0.0975 29.4375 -0.4375 29.4375 Z " fill="#1A1A1A" transform="translate(337.4375,145.5625)"/>
<path d="M0 0 C7.26 0 14.52 0 22 0 C22 0.33 22 0.66 22 1 C21.02389771 1.17390259 21.02389771 1.17390259 20.02807617 1.35131836 C17.08080018 1.87773979 14.13414886 2.40757995 11.1875 2.9375 C10.16333984 3.11990234 9.13917969 3.30230469 8.08398438 3.49023438 C6.60961914 3.75610352 6.60961914 3.75610352 5.10546875 4.02734375 C4.19949951 4.18968506 3.29353027 4.35202637 2.36010742 4.51928711 C-0.13561463 4.97824776 -0.13561463 4.97824776 -3 6 C-3 5.34 -3 4.68 -3 4 C-2.34 3.67 -1.68 3.34 -1 3 C-0.67 2.01 -0.34 1.02 0 0 Z " fill="#6EB0D0" transform="translate(274,192)"/>
<path d="M0 0 C1.06242973 3.20154998 0.94456496 4.83356234 -0.3125 7.9375 C-2.13799141 12.91010557 -2.77324773 17.83550362 -3.375 23.08203125 C-4.0312393 26.14584848 -4.93732608 27.68509693 -7 30 C-6.51735252 19.74374107 -4.01379924 9.44952735 0 0 Z " fill="#6DA6C6" transform="translate(358,238)"/>
<path d="M0 0 C0.66 0 1.32 0 2 0 C0.52278578 3.45201639 -1.43794001 5.64961936 -4.125 8.25 C-4.84945312 8.95640625 -5.57390625 9.6628125 -6.3203125 10.390625 C-6.87460938 10.92171875 -7.42890625 11.4528125 -8 12 C-8.66 11.67 -9.32 11.34 -10 11 C-8.38150935 9.16053461 -6.75581169 7.32848583 -5.125 5.5 C-4.66480469 4.97535156 -4.20460937 4.45070312 -3.73046875 3.91015625 C-2.52827924 2.56858245 -1.26754054 1.28000815 0 0 Z " fill="#55A1C7" transform="translate(175,187)"/>
<path d="M0 0 C-1.65091778 4.29238623 -4.73754566 6.8793915 -8 10 C-8.99 9.67 -9.98 9.34 -11 9 C-9.54782324 7.49403892 -8.08807139 5.99537896 -6.625 4.5 C-5.40683594 3.24703125 -5.40683594 3.24703125 -4.1640625 1.96875 C-2 0 -2 0 0 0 Z " fill="#383A38" transform="translate(172,180)"/>
<path d="M0 0 C0.66 0.33 1.32 0.66 2 1 C-1.3 4.63 -4.6 8.26 -8 12 C-8.66 11.67 -9.32 11.34 -10 11 C-6.7 7.37 -3.4 3.74 0 0 Z " fill="#54A1C7" transform="translate(132,235)"/>
<path d="M0 0 C1.32 0.33 2.64 0.66 4 1 C1.69 3.31 -0.62 5.62 -3 8 C-3.33 7.01 -3.66 6.02 -4 5 C-3.67 4.34 -3.34 3.68 -3 3 C-2.34 3 -1.68 3 -1 3 C-0.67 2.01 -0.34 1.02 0 0 Z " fill="#343534" transform="translate(166,229)"/>
<path d="M0 0 C10.55808656 0.96355353 10.55808656 0.96355353 15 2 C15 2.33 15 2.66 15 3 C13.2507786 3.08142927 11.50045458 3.13938541 9.75 3.1875 C8.28820312 3.23970703 8.28820312 3.23970703 6.796875 3.29296875 C3.62531258 2.96075202 2.32959693 2.11327721 0 0 Z " fill="#6DB1D0" transform="translate(280,223)"/>
<path d="M0 0 C0.66 0.66 1.32 1.32 2 2 C-1.465 4.97 -1.465 4.97 -5 8 C-5 5 -5 5 -2.5 2.3125 C-1.675 1.549375 -0.85 0.78625 0 0 Z " fill="#67B3D7" transform="translate(365,230)"/>
<path d="M0 0 C0.66 0.33 1.32 0.66 2 1 C0.71937515 2.7074998 -0.61767557 4.37373596 -2 6 C-2.66 6 -3.32 6 -4 6 C-4 6.66 -4 7.32 -4 8 C-4.66 7.67 -5.32 7.34 -6 7 C-4.02 4.69 -2.04 2.38 0 0 Z " fill="#676867" transform="translate(352,217)"/>
</svg>
